<svg height="512pt" viewBox="-115 0 512 512" width="512pt" xmlns="http://www.w3.org/2000/svg"><path d="m184.371094 286.789062v-222.917968c0-31.132813-25.238282-56.371094-56.371094-56.371094s-56.371094 25.238281-56.371094 56.371094v222.914062c-35.652344 19.832032-59.777344 57.878906-59.777344 101.566406 0 64.144532 52.003907 116.148438 116.148438 116.148438s116.148438-52.003906 116.148438-116.148438c0-43.6875-24.125-81.734374-59.777344-101.5625zm0 0" fill="#e0e0e2"/><path d="m41.851562 388.351562c0-43.6875 24.125-81.734374 59.777344-101.5625v-222.917968c0-25.9375 17.523438-47.765625 41.371094-54.335938-4.777344-1.316406-9.804688-2.035156-15-2.035156-31.132812 0-56.371094 25.238281-56.371094 56.371094v222.917968c-35.652344 19.828126-59.777344 57.875-59.777344 101.5625 0 64.148438 52.003907 116.148438 116.148438 116.148438 5.082031 0 10.089844-.328125 15-.960938-57.058594-7.359374-101.148438-56.125-101.148438-115.1875zm0 0" fill="#acabb1"/><path d="m231.113281 334.863281c-10.457031-14.175781-24.921875-25.214843-41.742187-31.40625v-13.703125c-1.640625-1.023437-3.300782-2.023437-5-2.964844v-222.917968c0-8.089844-1.714844-15.777344-4.785156-22.734375-5.632813-5.347657-13.230469-8.636719-21.585938-8.636719-17.300781 0-31.371094 14.074219-31.371094 31.371094v239.582031c-34.695312 12.773437-59.4375 46.117187-59.4375 85.242187 0 50.148438 40.652344 90.804688 90.804688 90.804688 29.238281 0 55.242187-13.820312 71.851562-35.28125 9.113282-16.578125 14.300782-35.617188 14.300782-55.867188 0-19.289062-4.710938-37.480468-13.035157-53.488281zm0 0" fill="#acabb1"/><path d="m159.371094 63.871094c0-17.296875-14.070313-31.371094-31.371094-31.371094s-31.371094 14.074219-31.371094 31.371094v158.128906h62.742188zm0 0" fill="#bddbff"/><path d="m159.371094 303.457031v-81.457031h-62.742188v81.453125c-34.691406 12.773437-59.4375 46.117187-59.4375 85.242187 0 50.148438 40.65625 90.804688 90.804688 90.804688 50.152344 0 90.808594-40.65625 90.808594-90.804688 0-39.125-24.742188-72.464843-59.433594-85.238281zm0 0" fill="#ff3f62"/><path d="m274.714844 167.828125h-55.214844v-27.609375l27.609375-27.605469 27.605469 27.605469zm0 0" fill="#ffb655"/><path d="m274.714844 203.921875h-55.214844v27.609375l27.609375 27.605469 27.605469-27.605469zm0 0" fill="#ffb655"/><path d="m143 36.324219c-4.460938-2.4375-9.570312-3.824219-15-3.824219-17.300781 0-31.371094 14.074219-31.371094 31.371094v158.128906h30v-158.128906c0-11.867188 6.625-22.21875 16.371094-27.546875zm0 0" fill="#57a4ff"/><path d="m67.191406 388.695312c0-39.125 24.742188-72.46875 59.4375-85.242187v-81.453125h-30v81.453125c-34.691406 12.773437-59.4375 46.117187-59.4375 85.242187 0 50.148438 40.65625 90.804688 90.804688 90.804688 5.109375 0 10.121094-.429688 15-1.238281-43.011719-7.152344-75.804688-44.527344-75.804688-89.566407zm0 0" fill="#c70024"/><path d="m262.109375 127.613281-15-15-27.609375 27.605469v27.609375h30v-27.609375zm0 0" fill="#ff8243"/><path d="m249.5 231.53125v-27.609375h-30v27.609375l27.609375 27.605469 15-15zm0 0" fill="#ff8243"/><path d="m191.871094 282.46875v-218.597656c0-35.21875-28.652344-63.871094-63.871094-63.871094s-63.871094 28.652344-63.871094 63.871094v185.480468h15v-185.480468c0-26.945313 21.921875-48.871094 48.871094-48.871094s48.871094 21.925781 48.871094 48.871094v227.328125l3.855468 2.144531c34.492188 19.183594 55.921876 55.589844 55.921876 95.007812 0 59.910157-48.742188 108.648438-108.648438 108.648438s-108.648438-48.738281-108.648438-108.648438c0-39.417968 21.429688-75.824218 55.921876-95.007812l3.855468-2.144531v-21.847657h-15v13.117188c-36.984375 22.347656-59.777344 62.511719-59.777344 105.882812 0 68.179688 55.46875 123.648438 123.648438 123.648438s123.648438-55.46875 123.648438-123.648438c0-43.371093-22.792969-83.535156-59.777344-105.882812zm0 0"/><path d="m166.871094 202v-138.128906c0-21.433594-17.4375-38.871094-38.871094-38.871094s-38.871094 17.4375-38.871094 38.871094v138.128906h15v-138.128906c0-13.160156 10.707032-23.871094 23.871094-23.871094s23.871094 10.710938 23.871094 23.871094v138.128906zm0 0"/><path d="m89.128906 298.375c-35.761718 15.414062-59.4375 51.0625-59.4375 90.320312 0 54.203126 44.097656 98.304688 98.304688 98.304688 54.207031 0 98.308594-44.101562 98.308594-98.304688 0-39.253906-23.675782-74.898437-59.433594-90.316406v-83.878906h-77.742188zm15 10.308594v-79.183594h47.742188v79.1875l4.910156 1.808594c32.609375 12.007812 54.523438 43.433594 54.523438 78.199218 0 45.933594-37.371094 83.304688-83.308594 83.304688-45.933594 0-83.304688-37.371094-83.304688-83.304688 0-34.769531 21.914063-66.195312 54.527344-78.203124zm0 0"/><path d="m0 62.5h49.628906v15h-49.628906zm0 0"/><path d="m17.8125 102.5h31.816406v15h-31.816406zm0 0"/><path d="m17.8125 22.5h31.816406v15h-31.816406zm0 0"/><path d="m0 142.5h49.628906v15h-49.628906zm0 0"/><path d="m17.8125 182.5h31.816406v15h-31.816406zm0 0"/><path d="m0 222.5h49.628906v15h-49.628906zm0 0"/><path d="m17.8125 262.5h31.816406v15h-31.816406zm0 0"/><path d="m247.109375 102.007812-35.109375 35.105469v38.214844h70.214844v-38.214844zm20.105469 58.320313h-40.214844v-17l20.109375-20.109375 20.105469 20.109375zm0 0"/><path d="m212 234.636719 35.109375 35.105469 35.105469-35.105469v-38.214844h-70.214844zm15-23.214844h40.214844v17l-20.105469 20.109375-20.109375-20.109375zm0 0"/><g fill="#fff"><path d="m141.871094 202.328125h-15v-88.457031h15zm0-98.457031h-15v-15h15zm0-25h-15v-15h15zm0 0"/><path d="m127.996094 462v-15c32.152344 0 58.308594-26.15625 58.308594-58.304688 0-8.863281-2.09375-17.773437-6.046876-25.769531l13.441407-6.652343c4.976562 10.054687 7.605469 21.261718 7.605469 32.421874 0 40.417969-32.886719 73.304688-73.308594 73.304688zm47.746094-106.699219c-2.542969-3.640625-5.5-6.988281-8.78125-9.957031l10.058593-11.128906c4.121094 3.726562 7.828125 7.929687 11.019531 12.496094zm-15.777344-15.375c-3.699219-2.433593-7.675782-4.445312-11.820313-5.972656l5.179688-14.074219c5.226562 1.921875 10.238281 4.457032 14.894531 7.523438zm0 0"/></g></svg>